<svg xmlns="http://www.w3.org/2000/svg" viewBox="2471.5 292.5 662.1 307"><defs><style>.a{fill:rgba(255,64,129,0);}.a,.b,.k{stroke:#ff4081;}.a,.b,.d,.e,.g,.h{stroke-miterlimit:10;}.b,.e,.g,.h,.r{fill:none;}.c{fill:#4d4d4d;}.c,.f{stroke:#4d4d4d;}.d,.j{fill:#e91e63;}.d,.e{stroke:#e91e63;}.f{fill:#2196f3;}.g{stroke:#666;}.h,.m{stroke:#69f0ae;}.i,.l,.o{fill:#fff;}.i{stroke:#000;}.i,.k,.m{stroke-dasharray:3 3;}.j,.l{font-size:10px;}.j,.l,.o,.p{font-family:SegoeUI, Segoe UI;}.k{fill:#ff4081;}.m{fill:#69f0ae;}.n{fill:#7bb2d6;stroke:#7bb2d6;}.o{stroke:rgba(255,255,255,0);font-size:8px;}.p{fill:#72787d;font-size:20px;}.q{stroke:none;}</style></defs><g transform="translate(1990)"><path class="a" d="M565,87V41H336.37" transform="translate(482 293)"/><path class="a" d="M331.12,41l7-3.5L336.37,41l1.75,3.5Z" transform="translate(482 293)"/><path class="a" d="M520,134H410V110H336.37" transform="translate(482 293)"/><path class="a" d="M331.12,110l7-3.5-1.75,3.5,1.75,3.5Z" transform="translate(482 293)"/><path class="b" d="M330,55v7.63" transform="translate(482 293)"/><path class="b" d="M330,67.88l-3.5-7,3.5,1.75,3.5-1.75Z" transform="translate(482 293)"/><path class="a" d="M328,14H609V80.63" transform="translate(482 293)"/><path class="a" d="M609,85.88l-3.5-7,3.5,1.75,3.5-1.75Z" transform="translate(482 293)"/><rect class="c" width="2" height="55" transform="translate(802 293)"/><rect class="c" width="2" height="55" transform="translate(806 293)"/><rect class="c" width="2" height="55" transform="translate(810 293)"/><path class="d" d="M283,55v7.63" transform="translate(482 293)"/><path class="e" d="M283,67.88l-3.5-7,3.5,1.75,3.5-1.75Z" transform="translate(482 293)"/><path class="b" d="M170,14H40v94.63" transform="translate(482 293)"/><path class="b" d="M40,113.88l-3.5-7,3.5,1.75,3.5-1.75Z" transform="translate(482 293)"/><rect class="f" width="150" height="55" transform="translate(652 293)"/><path class="d" d="M208,124v47.63" transform="translate(482 293)"/><path class="e" d="M208,176.88l-3.5-7,3.5,1.75,3.5-1.75Z" transform="translate(482 293)"/><path class="d" d="M208,69V61.37" transform="translate(482 293)"/><path class="e" d="M208,56.12l3.5,7L208,61.37l-3.5,1.75Z" transform="translate(482 293)"/><path class="g" d="M170,97v13H130v35H85.1" transform="translate(482 293)"/><path class="g" d="M79.85,145l7-3.5L85.1,145l1.75,3.5Z" transform="translate(482 293)"/><path class="g" d="M170,83V70H120v49H68.37" transform="translate(482 293)"/><path class="g" d="M63.12,119l7-3.5L68.37,119l1.75,3.5Z" transform="translate(482 293)"/><rect class="f" width="150" height="55" transform="translate(652 362)"/><path class="d" d="M283,233v11.63" transform="translate(482 293)"/><path class="e" d="M283,249.88l-3.5-7,3.5,1.75,3.5-1.75Z" transform="translate(482 293)"/><path class="d" d="M283,178V130.37" transform="translate(482 293)"/><path class="e" d="M283,125.12l3.5,7-3.5-1.75-3.5,1.75Z" transform="translate(482 293)"/><path class="h" d="M170,192H140V172H83.37" transform="translate(482 293)"/><path class="h" d="M78.12,172l7-3.5L83.37,172l1.75,3.5Z" transform="translate(482 293)"/><rect class="f" width="150" height="55" transform="translate(652 471)"/><path class="d" d="M208,251V239.37" transform="translate(482 293)"/><path class="e" d="M208,234.12l3.5,7-3.5-1.75-3.5,1.75Z" transform="translate(482 293)"/><path class="g" d="M170,265v15H54V200.37" transform="translate(482 293)"/><path class="g" d="M54,195.12l3.5,7L54,200.37l-3.5,1.75Z" transform="translate(482 293)"/><rect class="f" width="150" height="55" transform="translate(652 544)"/><path class="h" d="M520,201H440v18H336.37" transform="translate(482 293)"/><path class="h" d="M331.12,219l7-3.5-1.75,3.5,1.75,3.5Z" transform="translate(482 293)"/><path class="h" d="M329.2,124v47.63" transform="translate(482 293)"/><path class="h" d="M329.2,176.88l-3.5-7,3.5,1.75,3.5-1.75Z" transform="translate(482 293)"/><path class="b" d="M319.94,69.03l.03-7.66" transform="translate(482 293)"/><path class="b" d="M320,56.12l3.47,7.01-3.5-1.76-3.5,1.73Z" transform="translate(482 293)"/><path class="a" d="M330,97h95v21h88.63" transform="translate(482 293)"/><path class="a" d="M518.88,118l-7,3.5,1.75-3.5-1.75-3.5Z" transform="translate(482 293)"/><rect class="c" width="2" height="55" transform="translate(802 362)"/><rect class="c" width="2" height="55" transform="translate(806 362)"/><rect class="c" width="2" height="55" transform="translate(810 362)"/><path class="h" d="M320.56,233l-.35,10.64" transform="translate(482 293)"/><path class="h" d="M320.04,248.88l-3.27-7.11,3.44,1.87,3.55-1.64Z" transform="translate(482 293)"/><path class="h" d="M320,178V130.37" transform="translate(482 293)"/><path class="h" d="M320,125.12l3.5,7-3.5-1.75-3.5,1.75Z" transform="translate(482 293)"/><path class="h" d="M329,206h96V186h88.63" transform="translate(482 293)"/><path class="h" d="M518.88,186l-7,3.5,1.75-3.5-1.75-3.5Z" transform="translate(482 293)"/><rect class="c" width="2" height="55" transform="translate(802 471)"/><rect class="c" width="2" height="55" transform="translate(806 471)"/><rect class="c" width="2" height="55" transform="translate(810 471)"/><path class="h" d="M330,251V239.37" transform="translate(482 293)"/><path class="h" d="M330,234.12l3.5,7-3.5-1.75-3.5,1.75Z" transform="translate(482 293)"/><rect class="c" width="2" height="55" transform="translate(802 544)"/><rect class="c" width="2" height="55" transform="translate(806 544)"/><rect class="c" width="2" height="55" transform="translate(810 544)"/><path class="b" d="M54,118V27H163.3" transform="translate(482 293)"/><path class="b" d="M168.88,28l-7,3.5,1.75-3.5-1.75-3.5Z" transform="translate(482 292)"/><path class="h" d="M80,155h60V120h23.63" transform="translate(482 293)"/><path class="h" d="M168.88,120l-7,3.5,1.75-3.5-1.75-3.5Z" transform="translate(482 293)"/><path class="h" d="M68,183h57v23h38.63" transform="translate(482 293)"/><path class="h" d="M168.88,206l-7,3.5,1.75-3.5-1.75-3.5Z" transform="translate(482 293)"/><path class="h" d="M40,195v95H163.63" transform="translate(482 293)"/><path class="h" d="M168.88,290l-7,3.5,1.75-3.5-1.75-3.5Z" transform="translate(482 293)"/><path class="b" d="M68,127h57V83h38.63" transform="translate(482 293)"/><path class="b" d="M168.88,83l-7,3.5,1.75-3.5-1.75-3.5Z" transform="translate(482 293)"/><circle class="i" cx="40" cy="40" r="40" transform="translate(482 408)"/><text class="j" transform="translate(702 438)"><tspan x="0" y="11">Gossipping</tspan></text><rect class="k" width="141.1" height="62" transform="translate(1002 380)"/><text class="l" transform="translate(1029.842 405)"><tspan x="0" y="11">Topic Provider FOO</tspan></text><rect class="m" width="141" height="62" transform="translate(1002 463)"/><text class="l" transform="translate(1030.073 487)"><tspan x="0" y="11">Topic Provider BAR</tspan></text><g class="n" transform="translate(765.2 547.8)"><rect class="q" width="33.74" height="48.3"/><rect class="r" x="0.5" y="0.5" width="32.74" height="47.3"/></g><text class="o" transform="translate(770.266 565.655)"><tspan x="0" y="9">Router</tspan></text><g transform="translate(0 -73)"><g class="n" transform="translate(765.2 547.8)"><rect class="q" width="33.74" height="48.3"/><rect class="r" x="0.5" y="0.5" width="32.74" height="47.3"/></g><text class="o" transform="translate(770.266 565.655)"><tspan x="0" y="9">Router</tspan></text></g><g transform="translate(0 -183)"><g class="n" transform="translate(765.2 547.8)"><rect class="q" width="33.74" height="48.3"/><rect class="r" x="0.5" y="0.5" width="32.74" height="47.3"/></g><text class="o" transform="translate(770.266 565.655)"><tspan x="0" y="9">Router</tspan></text></g><g transform="translate(0 -251)"><g class="n" transform="translate(765.2 547.8)"><rect class="q" width="33.74" height="48.3"/><rect class="r" x="0.5" y="0.5" width="32.74" height="47.3"/></g><text class="o" transform="translate(770.266 565.655)"><tspan x="0" y="9">Router</tspan></text></g><text class="l" transform="translate(675 493)"><tspan x="0" y="11">Teracache Node</tspan></text><text class="l" transform="translate(675 565)"><tspan x="0" y="11">Teracache Node</tspan></text><text class="l" transform="translate(675 315)"><tspan x="0" y="11">Teracache Node</tspan></text><text class="l" transform="translate(675 383)"><tspan x="0" y="11">Teracache Node</tspan></text><text class="p" transform="translate(491 435)"><tspan x="0" y="22">Clients</tspan></text></g></svg>